<?xml version="1.0" standalone="no"?>
<!DOCTYPE svg PUBLIC "-//W3C//DTD SVG 20010904//EN"
 "http://www.w3.org/TR/2001/REC-SVG-20010904/DTD/svg10.dtd">
<svg version="1.0" xmlns="http://www.w3.org/2000/svg"
 width="50.000000pt" height="50.000000pt" viewBox="0 0 50.000000 50.000000"
 preserveAspectRatio="xMidYMid meet">

<g transform="translate(0.000000,50.000000) scale(0.100000,-0.100000)"
fill="#000000" stroke="none">
<path d="M145 475 c-22 -8 -54 -30 -72 -49 -63 -68 -68 -170 -14 -272 21 -38
31 -71 31 -100 0 -24 5 -44 10 -44 22 0 9 84 -25 160 -40 88 -44 135 -16 195
32 69 91 105 170 105 92 0 162 -47 181 -123 6 -23 22 -63 36 -89 l25 -48 -25
-12 c-22 -9 -26 -18 -26 -55 0 -54 -26 -83 -75 -83 -31 0 -35 -3 -35 -25 0
-14 5 -25 10 -25 6 0 10 7 10 15 0 8 9 15 20 15 52 0 90 41 90 98 0 17 10 34
28 48 l27 23 -27 48 c-14 26 -31 67 -37 90 -31 114 -160 172 -286 128z"/>
<path d="M230 303 c-6 -32 -14 -68 -17 -80 -3 -13 0 -23 5 -23 6 0 16 26 22
58 6 31 14 67 17 80 3 12 0 22 -5 22 -6 0 -16 -26 -22 -57z"/>
<path d="M147 312 c-22 -25 -22 -45 3 -67 16 -14 20 -15 20 -4 0 8 -5 20 -12
27 -8 8 -8 15 1 26 20 23 8 41 -12 18z"/>
<path d="M300 319 c0 -8 5 -20 12 -27 9 -9 9 -15 0 -24 -7 -7 -12 -19 -12 -27
0 -11 4 -10 20 4 11 10 20 26 20 35 0 9 -9 25 -20 35 -16 14 -20 15 -20 4z"/>
</g>
</svg>
